<svg xmlns="http://www.w3.org/2000/svg" width="16" height="16" fill="none" viewBox="0 0 16 16"><path fill="#fff" d="M11.699 1.003 9.779 1C7.625 1 6.232 2.352 6.232 4.445v1.589h-1.93A.294.294 0 0 0 4 6.32V8.62c0 .158.135.286.302.286H6.23v5.807c0 .158.135.286.302.286H9.05a.294.294 0 0 0 .302-.286V8.907h2.255a.294.294 0 0 0 .302-.286l.001-2.301a.278.278 0 0 0-.088-.202.31.31 0 0 0-.214-.084H9.352V4.687c0-.647.163-.975 1.054-.975h1.292A.294.294 0 0 0 12 3.425V1.288a.294.294 0 0 0-.301-.285Z"/></svg>