<svg xmlns="http://www.w3.org/2000/svg" width="16" height="16" fill="none" viewBox="0 0 16 16"><path fill="#fff" d="M15.915 12.027a1.363 1.363 0 0 0-.054-.114c-.277-.548-.808-1.22-1.592-2.018l-.016-.018-.008-.008-.008-.01h-.009c-.356-.371-.58-.62-.674-.747-.173-.243-.21-.49-.117-.739.066-.187.316-.586.749-1.194.229-.322.408-.581.542-.776.962-1.399 1.378-2.293 1.25-2.683l-.05-.09c-.033-.056-.12-.106-.258-.151-.139-.047-.317-.054-.534-.023l-2.398.017a.281.281 0 0 0-.167.006l-.108.027-.042.023-.033.027a.362.362 0 0 0-.091.096.668.668 0 0 0-.084.16c-.26.736-.558 1.42-.891 2.052a19.7 19.7 0 0 1-.567.982 4.658 4.658 0 0 1-.432.612c-.116.13-.222.236-.317.315-.095.078-.167.112-.217.1l-.142-.036a.588.588 0 0 1-.188-.224 1.066 1.066 0 0 1-.096-.355 4.607 4.607 0 0 1-.03-.37 7.074 7.074 0 0 1 .005-.439c.007-.188.008-.316.008-.382 0-.231.005-.483.013-.753s.015-.485.022-.644c.004-.157.008-.326.008-.503s-.01-.314-.03-.415c-.02-.1-.049-.198-.086-.291a.47.47 0 0 0-.172-.218.913.913 0 0 0-.279-.124c-.294-.073-.67-.112-1.125-.118-1.033-.012-1.696.061-1.99.22a1.137 1.137 0 0 0-.317.274c-.1.134-.114.207-.043.218.334.056.57.186.71.392l.05.109c.039.079.078.22.116.42.039.2.063.422.075.665.028.444.028.825 0 1.141-.028.317-.054.564-.079.739-.024.177-.062.32-.112.43a2.01 2.01 0 0 1-.1.2.138.138 0 0 1-.04.044.573.573 0 0 1-.226.047c-.078 0-.171-.043-.282-.127a2.114 2.114 0 0 1-.347-.35 4.688 4.688 0 0 1-.405-.627c-.15-.268-.305-.585-.467-.95l-.133-.264a21.87 21.87 0 0 1-.725-1.688.6.6 0 0 0-.2-.292l-.042-.027a.504.504 0 0 0-.134-.076.885.885 0 0 0-.191-.06l-2.283.018c-.233 0-.392.058-.475.174l-.033.055A.325.325 0 0 0 0 3.833c0 .066.016.148.05.247.334.858.696 1.684 1.088 2.482.392.797.732 1.44 1.02 1.926.29.486.583.946.884 1.377.3.433.498.708.596.83.098.121.173.213.229.273l.209.219c.133.146.33.32.587.524.258.203.544.404.86.602.313.197.678.36 1.095.483.416.125.821.175 1.216.15h.959c.194-.018.341-.086.44-.2l.033-.047a.63.63 0 0 0 .062-.168c.02-.077.03-.159.03-.25a3.378 3.378 0 0 1 .054-.706c.04-.21.088-.369.142-.474.052-.108.112-.197.18-.269a.712.712 0 0 1 .141-.132.469.469 0 0 1 .067-.032c.134-.048.29-.002.47.141.182.143.35.32.508.53.159.209.348.445.57.706.222.261.416.456.583.585l.167.109c.11.073.256.14.432.2.178.06.333.077.467.045l2.133-.036c.21 0 .375-.038.491-.114.116-.077.186-.16.21-.25a.787.787 0 0 0 .004-.312 1.369 1.369 0 0 0-.062-.245Z"/></svg>